<svg xmlns="http://www.w3.org/2000/svg" viewBox="0 0 600 400" width="600" height="400"><rect width="600" height="400" fill="#1e293b"/><rect x="50" y="140" width="500" height="160" rx="10" fill="#0f172a"/><g fill="#84cc16"><rect x="70" y="160" width="36" height="36" rx="4"/><rect x="115" y="160" width="36" height="36" rx="4"/><rect x="160" y="160" width="36" height="36" rx="4"/><rect x="205" y="160" width="36" height="36" rx="4"/><rect x="250" y="160" width="36" height="36" rx="4"/><rect x="295" y="160" width="36" height="36" rx="4"/><rect x="340" y="160" width="36" height="36" rx="4"/><rect x="385" y="160" width="36" height="36" rx="4"/><rect x="430" y="160" width="36" height="36" rx="4"/><rect x="475" y="160" width="36" height="36" rx="4"/><rect x="70" y="205" width="36" height="36" rx="4"/><rect x="115" y="205" width="36" height="36" rx="4"/><rect x="160" y="205" width="36" height="36" rx="4"/><rect x="205" y="205" width="36" height="36" rx="4"/><rect x="250" y="205" width="36" height="36" rx="4"/><rect x="295" y="205" width="36" height="36" rx="4"/><rect x="340" y="205" width="36" height="36" rx="4"/><rect x="385" y="205" width="36" height="36" rx="4"/><rect x="430" y="205" width="36" height="36" rx="4"/><rect x="475" y="205" width="36" height="36" rx="4"/><rect x="70" y="250" width="441" height="36" rx="4"/></g><text x="300" y="370" font-family="Arial" font-size="26" fill="#fff" text-anchor="middle" font-weight="700">Keychron K2 Wireless</text></svg>
